<svg xmlns="http://www.w3.org/2000/svg" viewBox="0 0 750 500"><g id="freepik--background-complete--inject-154"><path d="M572.3,222.41a277.6,277.6,0,0,0-84.13,6c-39.83,9.15-79.06,27.19-119.69,22.73-28.36-3.1-54.22-16.94-81-27-37.85-14.16-79.16-20.8-119-14.13S90.42,237.58,67,270.5L57,287.45s58-40.14,170.14-14.91c117.23,26.39,148.41,60.08,253,61,84.14.72,91.78,1.11,138.66-9,12.16-2.64,47-1.76,47-1.76A167.87,167.87,0,0,1,716.91,336h0A166.59,166.59,0,0,0,572.3,222.41Z" style="fill:#f5f5f5"></path><path d="M240.61,140.39H436.87s-17.36-31.58-67.88-27c-48.24,4.39-50.7-15.54-75.23-18S248.78,111.77,240.61,140.39Z" style="fill:#f5f5f5"></path><path d="M461.23,102.19h82.19S536.15,89,515,90.89c-20.2,1.84-21.23-6.5-31.5-7.53S464.65,90.21,461.23,102.19Z" style="fill:#ebebeb"></path><path d="M339.46,197.58h59s-5.22-9.5-20.41-8.12c-14.51,1.32-15.25-4.67-22.62-5.41S341.92,189,339.46,197.58Z" style="fill:#f5f5f5"></path><path d="M513.86,154.31s-.34-.35-1-.93a10,10,0,0,0-3.1-1.9,9.31,9.31,0,0,0-5.28-.44,9.53,9.53,0,0,0-5.44,3.43,9.71,9.71,0,0,0-1,1.56l-.2.39-.24-.36a9.18,9.18,0,0,0-4.67-3.45,8.9,8.9,0,0,0-4.71-.19,11.31,11.31,0,0,0-3.95,1.87,3.59,3.59,0,0,1,.88-.81,9.09,9.09,0,0,1,7.92-1.31,9.4,9.4,0,0,1,4.95,3.6l-.44,0a9.45,9.45,0,0,1,1-1.65,9.85,9.85,0,0,1,5.75-3.58,9.39,9.39,0,0,1,5.51.57,9.49,9.49,0,0,1,3.11,2.09,6.26,6.26,0,0,1,.65.78C513.81,154.2,513.87,154.3,513.86,154.31Z" style="fill:#ebebeb"></path></g><g id="freepik--Floor--inject-154"><path d="M469.17,427.53l1.54,0,4.53,0,17.51,0,65.24-.08-.18.2c-.58-4.34-1.22-9.11-1.89-14l-.08-.66.42.51c3,3.58,6.21,7.51,9.55,11.55l-.35.14c-.62-14.11-1.31-29.7-2-46.22l.45,0,8.56,47.72-.48,0a107.69,107.69,0,0,1,3.15-16.41A54.88,54.88,0,0,1,578,402a20.65,20.65,0,0,1,5.05-7.25l.71-.6-.31.89a75.45,75.45,0,0,0-3.76,15.39,54.35,54.35,0,0,0-.46,8.19,34.92,34.92,0,0,0,1.2,8.18l-.25-.18,19.61-.28-.26.26v-13l.48.85,6,10.55-.47.06c.16-.57.34-1.19.51-1.81q2.28-7.94,4.51-15.78l.51-1.78V424l-.42-.2,10-8,.8-.65-.4.95-4.53,10.55-.24-.36,13.81-.17-.25.21a56.07,56.07,0,0,0,.63-7,46.63,46.63,0,0,0-.27-6.9,28,28,0,0,0-1.52-6.64,15.77,15.77,0,0,0-3.52-5.65l-1.09-1.07,1.34.66a13.2,13.2,0,0,1,5.28,5.58,32.2,32.2,0,0,1,2.82,7,67.8,67.8,0,0,1,2.11,14.66l-.48,0c1.08-8.72,2.28-17.19,3.66-25.39.69-4.09,1.43-8.12,2.3-12.06.44-2,.9-3.92,1.45-5.84a22.93,22.93,0,0,1,2.19-5.54l.57-.9-.17,1.07A179.87,179.87,0,0,0,643,403.25c-.08,4,.06,7.91.36,11.73a71.11,71.11,0,0,0,1.82,11l-.35,0c1.46-3.57,3-7,4.57-10.21q1.2-2.43,2.52-4.71a22.28,22.28,0,0,1,3-4.22l.5-.52-.22.69a73.12,73.12,0,0,0-2.36,9.56,41.39,41.39,0,0,0-.67,9l-.27-.07,7.55-11.54.24-.37V414c0,4.55,0,8.18,0,11.55l-.11-.11,24.23.27,6.22.09c1.4,0,2.11.05,2.11.05h-2.11l-6.22,0-24.23-.17h-.11v-.11c0-3.37,0-7,0-11.55l.24.07-7.52,11.56-.25.38,0-.45a40,40,0,0,1,.66-9,72.93,72.93,0,0,1,2.34-9.62l.28.17a22.16,22.16,0,0,0-3,4.17c-.88,1.5-1.71,3.07-2.5,4.69q-2.38,4.85-4.54,10.18l-.22.53-.14-.55A71.69,71.69,0,0,1,643,415c-.3-3.83-.45-7.76-.38-11.77a182.59,182.59,0,0,1,2.2-24.95l.39.16a22.26,22.26,0,0,0-2.13,5.41c-.54,1.9-1,3.85-1.43,5.81-.87,3.93-1.6,8-2.29,12.05q-2.05,12.28-3.63,25.37l-.48,0a67.15,67.15,0,0,0-2.1-14.55,32,32,0,0,0-2.78-6.92l-.47-.81-.52-.77a16.43,16.43,0,0,0-1.15-1.49,9.34,9.34,0,0,0-2.87-2.28l.25-.42a16.29,16.29,0,0,1,3.65,5.83,28.37,28.37,0,0,1,1.55,6.76,45.09,45.09,0,0,1,.27,7,54,54,0,0,1-.63,7l0,.21h-.21l-13.81.17H616l.15-.36,4.52-10.55.4.3-10.05,8-.42.33V407.47l.51.07q-2.24,7.83-4.51,15.77c-.17.62-.35,1.24-.51,1.81l-.17.6-.31-.54c-2.06-3.62-4.12-7.21-6-10.55l.49-.13v12.31h-.26l-19.6.27H580l0-.19a35.76,35.76,0,0,1-1.23-8.32,55.2,55.2,0,0,1,.47-8.26A76.8,76.8,0,0,1,583,394.82l.4.28a20.21,20.21,0,0,0-4.92,7.07,55.79,55.79,0,0,0-2.9,8.09,107.57,107.57,0,0,0-3.15,16.32l-.19,1.65L572,426.6c-3-16.68-5.84-32.68-8.52-47.73l.44-.05c.71,16.52,1.38,32.12,2,46.22l0,.6-.38-.46L556,413.62l.33-.15c.65,4.92,1.29,9.69,1.87,14l0,.2H558l-65.24-.08-17.51,0-4.53,0Z" style="fill:#263238"></path><path d="M101.6,427.53c0,.14-14.39.26-32.15.26s-32.15-.12-32.15-.26,14.39-.27,32.15-.27S101.6,427.38,101.6,427.53Z" style="fill:#263238"></path></g><g id="freepik--Plant--inject-154"><path d="M62.68,404.7c-1.07,1.52-3.13,1-4.09.09a7.75,7.75,0,0,1-1.74-3.55c-.84-2.93-1.69-6-1.06-9a5,5,0,0,1,1.14-2.44,2.62,2.62,0,0,1,2.48-.83,3.85,3.85,0,0,1,2.16,2.27,21.52,21.52,0,0,1,2.11,9.2,7.41,7.41,0,0,1-1,4.25" style="fill:#FF725E"></path><g style="opacity:0.2"><path d="M62.68,404.7c-1.07,1.52-3.13,1-4.09.09a7.75,7.75,0,0,1-1.74-3.55c-.84-2.93-1.69-6-1.06-9a5,5,0,0,1,1.14-2.44,2.62,2.62,0,0,1,2.48-.83,3.85,3.85,0,0,1,2.16,2.27,21.52,21.52,0,0,1,2.11,9.2,7.41,7.41,0,0,1-1,4.25"></path></g><path d="M58.69,412.4a9.2,9.2,0,0,0-5.72-.69A4.75,4.75,0,0,0,50.14,413a2,2,0,0,0,0,2.82,2.68,2.68,0,0,0,1.78.45c1.52,0,3.2-.28,4.4.63.69.52,1.15,1.38,2,1.64a2,2,0,0,0,2.14-1,3.32,3.32,0,0,0,.24-2.46A3.76,3.76,0,0,0,58.69,412.4Z" style="fill:#FF725E"></path><path d="M65.6,406.88a5.56,5.56,0,0,1-.86-5.09,9.8,9.8,0,0,1,3-4.37,16.08,16.08,0,0,1,5.39-3.18,5.67,5.67,0,0,1,2.43-.42,2.53,2.53,0,0,1,2,1.24c.57,1.08,0,2.39-.57,3.47a40.79,40.79,0,0,1-3.54,5.4,9.65,9.65,0,0,1-3.9,3.34c-1.62.62-3.3.54-4.16-.58" style="fill:#FF725E"></path><path d="M62.75,427.63a3.39,3.39,0,0,1-.1-.69c0-.5-.11-1.13-.18-1.88a27.72,27.72,0,0,0-.42-2.77A21.87,21.87,0,0,0,61,419a12.07,12.07,0,0,0-1.66-2.95,6,6,0,0,0-3.89-2.31,2.76,2.76,0,0,1-.68-.1,3.4,3.4,0,0,1,.7,0,5.65,5.65,0,0,1,1.85.48,6.32,6.32,0,0,1,2.22,1.77,12,12,0,0,1,1.73,3,19.88,19.88,0,0,1,1,3.32,22.84,22.84,0,0,1,.37,2.8c.06.8.08,1.45.1,1.9A2.88,2.88,0,0,1,62.75,427.63Z" style="fill:#263238"></path><path d="M62.62,426.18a1.14,1.14,0,0,1,0-.32V425c0-.8,0-1.95,0-3.37-.07-2.84-.31-6.77-.78-11.08s-1.11-8.2-1.69-11c-.13-.7-.27-1.33-.4-1.88s-.23-1-.33-1.41-.16-.66-.21-.89a1.18,1.18,0,0,1-.06-.32,1.2,1.2,0,0,1,.11.3l.27.88c.12.38.24.86.38,1.4s.29,1.18.44,1.88a103.68,103.68,0,0,1,1.77,11c.47,4.32.69,8.25.71,11.1,0,1.43,0,2.58-.05,3.38,0,.37,0,.67-.06.92A1.61,1.61,0,0,1,62.62,426.18Z" style="fill:#263238"></path><path d="M62.6,418.59a6.89,6.89,0,0,1,0-.95,25.73,25.73,0,0,1,.29-2.6,34,34,0,0,1,.85-3.78,33,33,0,0,1,1.58-4.47A23.87,23.87,0,0,1,70,399.56a10.87,10.87,0,0,1,1.09-1c.17-.14.31-.28.46-.4l.43-.29a5.29,5.29,0,0,1,.8-.51,29.23,29.23,0,0,0-2.64,2.35,25.19,25.19,0,0,0-4.52,7.2A34.68,34.68,0,0,0,64,411.33a37.45,37.45,0,0,0-.9,3.75c-.2,1.07-.31,1.95-.38,2.56A6.43,6.43,0,0,1,62.6,418.59Z" style="fill:#263238"></path></g><g id="freepik--Birds--inject-154"><path d="M201.51,98.81a2.38,2.38,0,0,1-.57.24l-1.68.61c-1.45.53-3.53,1.33-6,2.46A80.73,80.73,0,0,0,175,113.45l-1.48,1.26-.16.14-.17-.14a42.29,42.29,0,0,0-18.22-8.25,43,43,0,0,0-6-.71c-.71-.06-1.26,0-1.64-.07a3.43,3.43,0,0,1-.58,0,2.23,2.23,0,0,1,.58-.06c.37,0,.93,0,1.65,0a37.48,37.48,0,0,1,6.08.56,41.25,41.25,0,0,1,18.47,8.2h-.33l1.49-1.26a76.87,76.87,0,0,1,18.43-11.27c2.55-1.09,4.66-1.84,6.14-2.32.73-.24,1.31-.4,1.71-.51A2.52,2.52,0,0,1,201.51,98.81Z" style="fill:#263238"></path><path d="M121.57,130.39s-.48-.5-1.4-1.3a14,14,0,0,0-4.46-2.55,13.08,13.08,0,0,0-7.51-.38,13.51,13.51,0,0,0-7.56,5.12,14.21,14.21,0,0,0-1.32,2.27l-.18.4-.26-.35a12.88,12.88,0,0,0-6.8-4.65,12.51,12.51,0,0,0-6.69,0,13.56,13.56,0,0,0-4.11,1.9c-.88.62-1.31,1-1.34,1s.08-.12.28-.32a8.64,8.64,0,0,1,1-.82,12.47,12.47,0,0,1,4.12-2.08,12.71,12.71,0,0,1,6.91-.1,13.26,13.26,0,0,1,7.1,4.79l-.45.05a14.15,14.15,0,0,1,1.37-2.36,13.9,13.9,0,0,1,7.86-5.29,13.51,13.51,0,0,1,12.22,3.25,10.07,10.07,0,0,1,1,1.05A2.15,2.15,0,0,1,121.57,130.39Z" style="fill:#263238"></path></g><g id="freepik--Farm--inject-154"><path d="M614.88,146.62c-.66.33-18.44,9.55-18.44,9.55l3.62,4.44,15.8-12.18Z" style="fill:#263238"></path><path d="M617.48,151.7c-.52.51-14.66,14.69-14.66,14.69l4.79,3.13L619,153.12Z" style="fill:#263238"></path><path d="M612.42,141.51c-.74.08-20.17,1-20.17,1l1.39,6.89,19.07-5.87Z" style="fill:#263238"></path><path d="M612.94,136.1c-.73-.13-19.64-4.71-19.64-4.71l-.61,7,19.95-.26Z" style="fill:#263238"></path><path d="M616.27,132c-.58-.46-15.11-13.4-15.11-13.4l-3.83,5.89,17.72,9.17Z" style="fill:#263238"></path><path d="M620.38,130c-.27-.68-6.46-19.13-6.46-19.13L607.67,114l10.82,16.75Z" style="fill:#263238"></path><path d="M626.44,129.37c.08-.74,3.12-20,3.12-20l-7,0,1.86,19.86Z" style="fill:#263238"></path><polygon points="627.06 141.11 680.98 130.05 681.95 154.79 627.23 145.52 627.06 141.11" style="fill:#263238"></polygon><path d="M632,142.17a5.38,5.38,0,1,1-5.37-5.37A5.37,5.37,0,0,1,632,142.17Z" style="fill:#263238"></path><path d="M606.8,326.8c-.29,0,3.3-38.52,8-86S623.57,155,623.86,155s-3.3,38.51-8,86S607.09,326.83,606.8,326.8Z" style="fill:#263238"></path><path d="M648.31,322c-.28,0-4.33-37.65-9-84.14s-8.28-84.21-8-84.24,4.32,37.63,9,84.14S648.6,322,648.31,322Z" style="fill:#263238"></path><path d="M637.29,215.83c0,.28-4.16.52-9.28.52s-9.28-.24-9.28-.52,4.15-.53,9.28-.53S637.29,215.54,637.29,215.83Z" style="fill:#263238"></path><path d="M641.27,258c0,.29-6.07.52-13.55.52s-13.54-.23-13.54-.52,6.06-.52,13.54-.52S641.27,257.73,641.27,258Z" style="fill:#263238"></path><path d="M646.19,301c0,.29-8.22.52-18.36.52s-18.37-.23-18.37-.52,8.22-.52,18.37-.52S646.19,300.74,646.19,301Z" style="fill:#263238"></path><path d="M627.15,145.47c.29,0,.86,39.81,1.28,88.9s.52,88.91.24,88.92-.86-39.8-1.28-88.91S626.86,145.47,627.15,145.47Z" style="fill:#263238"></path><path d="M651.33,143.08a3.37,3.37,0,0,1-.05-.41c0-.29,0-.69-.08-1.2,0-.26,0-.56-.06-.88s-.11-.67-.16-1.06a18.63,18.63,0,0,0-.54-2.6,24.23,24.23,0,0,0-2.81-6.69,25.07,25.07,0,0,0-30.11-10.68,26.87,26.87,0,0,0-3.27,1.44,25.64,25.64,0,0,0-3.06,2,28.06,28.06,0,0,0-2.84,2.41,28.56,28.56,0,0,0-2.45,2.91,24.14,24.14,0,0,0-3.58,6.89,24.8,24.8,0,0,0,0,15.79,24.05,24.05,0,0,0,3.57,6.9,27.48,27.48,0,0,0,2.46,2.9,29.21,29.21,0,0,0,2.83,2.42,26.58,26.58,0,0,0,3.07,2,26.87,26.87,0,0,0,3.27,1.44,25.1,25.1,0,0,0,30.11-10.69,24.18,24.18,0,0,0,2.81-6.68,18.74,18.74,0,0,0,.54-2.61c0-.38.12-.73.16-1.05s0-.62.06-.88c0-.51.06-.91.08-1.2a3.37,3.37,0,0,1,.05-.41,2.56,2.56,0,0,1,0,.41c0,.29,0,.69,0,1.2,0,.27,0,.57,0,.89s-.09.68-.14,1.06a18.6,18.6,0,0,1-.49,2.64,23.7,23.7,0,0,1-2.76,6.78,25.39,25.39,0,0,1-17.12,12.06,25.46,25.46,0,0,1-13.4-1.07,27.26,27.26,0,0,1-3.34-1.46,26.69,26.69,0,0,1-3.13-2,28,28,0,0,1-2.9-2.46,28.62,28.62,0,0,1-2.51-3,24.6,24.6,0,0,1-3.65-7,25.27,25.27,0,0,1,0-16.12,24.66,24.66,0,0,1,3.65-7,31,31,0,0,1,2.51-3,28,28,0,0,1,2.9-2.46,26.69,26.69,0,0,1,3.13-2,25.81,25.81,0,0,1,3.34-1.46,25.31,25.31,0,0,1,24.1,3.73,25.17,25.17,0,0,1,6.42,7.25,24,24,0,0,1,2.76,6.79,18.23,18.23,0,0,1,.49,2.63c0,.39.11.74.14,1.07s0,.62,0,.88c0,.51,0,.91,0,1.21A2.56,2.56,0,0,1,651.33,143.08Z" style="fill:#263238"></path><path d="M635.52,134.89c.82.12,19-5.31,19-5.31l-5.1-8.92-14.48,12.56Z" style="fill:#263238"></path><path d="M631.3,130.64c.53-.52,15.66-14.17,15.66-14.17L639.8,111l-10,19Z" style="fill:#263238"></path><path d="M637.7,141.75c.73-.07,20.16-1,20.16-1l-1.39-6.89-19.06,5.87Z" style="fill:#263238"></path><path d="M636.79,148.65c.72.16,19.41,5.59,19.41,5.59l.92-7-19.94-.65Z" style="fill:#263238"></path><path d="M634.06,153.23c.58.45,15.11,13.4,15.11,13.4l3.83-5.89-17.72-9.17Z" style="fill:#263238"></path><path d="M629.8,154.1c.27.68,6.46,19.13,6.46,19.13l6.25-3.21-10.83-16.76Z" style="fill:#263238"></path><path d="M622.42,153.62c-.15.72-5.35,19.47-5.35,19.47l7,.83.4-19.94Z" style="fill:#263238"></path><path d="M392.88,322.18l-.91-.25-2.66-.81L379.1,318l-37.51-11.62-12.43-3.87c-4.32-1.34-8.83-2.69-13.42-4.33-9.22-3.17-19.09-6.48-29.55-9.76-20.91-6.53-44.16-13-69.05-17.5a361.41,361.41,0,0,0-36.59-4.77,291,291,0,0,0-34.34-.65,269.29,269.29,0,0,0-30.93,3.06,244.45,244.45,0,0,0-26.44,5.86A202.74,202.74,0,0,0,52.4,288.77c-2,1.09-3.91,2-5.45,2.88l-3.9,2.27-2.4,1.39-.83.46s.26-.18.8-.51L43,293.83l3.87-2.32c1.54-.91,3.39-1.82,5.43-2.92a199.73,199.73,0,0,1,36.44-14.54,246.29,246.29,0,0,1,26.47-5.93,269.84,269.84,0,0,1,31-3.11,291.79,291.79,0,0,1,34.4.62,364.76,364.76,0,0,1,36.64,4.76c24.92,4.5,48.19,11,69.1,17.56,10.46,3.3,20.34,6.63,29.55,9.81,4.58,1.65,9.09,3,13.41,4.36L341.7,306l37.47,11.78L389.34,321l2.65.85Z" style="fill:#263238"></path><path d="M614.11,333c0,.14-62.51.26-139.61.26s-139.63-.12-139.63-.26,62.5-.26,139.63-.26S614.11,332.8,614.11,333Z" style="fill:#263238"></path><path d="M716.91,336l-.31-.1-.88-.33-3.36-1.31c-1.45-.57-3.23-1.3-5.34-2l-3.37-1.17-1.83-.64-2-.58c-2.68-.79-5.6-1.73-8.81-2.46-1.6-.38-3.24-.85-5-1.2l-5.3-1.07a177.48,177.48,0,0,0-23.89-2.7,196.83,196.83,0,0,0-24,.62l-5.38.52c-1.75.19-3.43.45-5.06.65-3.27.39-6.29.95-9,1.4l-2,.34-1.91.38-3.5.69c-2.19.41-4,.84-5.58,1.19l-3.52.77-.92.19-.32.05a1,1,0,0,1,.3-.1l.91-.24,3.51-.87c1.52-.37,3.38-.84,5.56-1.28l3.49-.73,1.91-.39,2-.36c2.77-.47,5.78-1.05,9.06-1.46,1.63-.22,3.32-.49,5.06-.68l5.39-.55a191.79,191.79,0,0,1,24.12-.66,173.34,173.34,0,0,1,24,2.75l5.31,1.09c1.72.36,3.36.84,5,1.23,3.22.75,6.14,1.71,8.82,2.53l2,.6,1.84.66,3.36,1.2c2.11.73,3.87,1.48,5.32,2.09l3.33,1.4.86.37C716.82,335.89,716.92,335.94,716.91,336Z" style="fill:#263238"></path><path d="M552.42,342.58c.08,0-.22,1.22-.54,3.18a41.25,41.25,0,0,0-.54,7.74,42.59,42.59,0,0,0,.93,7.7c.42,1.94.79,3.13.71,3.15s-.16-.27-.36-.8-.45-1.3-.71-2.27a34.55,34.55,0,0,1-.4-15.58c.21-1,.42-1.77.59-2.31A2.88,2.88,0,0,1,552.42,342.58Z" style="fill:#263238"></path><path d="M559.86,346.54a18.82,18.82,0,0,1-.76,2.81c-.51,1.72-1.17,4.1-1.78,6.77s-1,5.1-1.33,6.87a18.87,18.87,0,0,1-.53,2.86,14.36,14.36,0,0,1,.17-2.91,61.78,61.78,0,0,1,1.18-6.94,65,65,0,0,1,1.94-6.76A14.51,14.51,0,0,1,559.86,346.54Z" style="fill:#263238"></path><path d="M568.3,347.55a26.57,26.57,0,0,1-1.92,2.52,72.53,72.53,0,0,0-4.38,6.25,75.52,75.52,0,0,0-3.68,6.68,25.61,25.61,0,0,1-1.42,2.85,15.6,15.6,0,0,1,1.09-3,51.91,51.91,0,0,1,8.1-13A13.9,13.9,0,0,1,568.3,347.55Z" style="fill:#263238"></path><path d="M551.07,361.8a9.71,9.71,0,0,1-2.2-2.29,9.92,9.92,0,0,1-1.81-2.61c.12-.1,1.1.93,2.21,2.29A9.73,9.73,0,0,1,551.07,361.8Z" style="fill:#263238"></path><path d="M315.59,312.9s.25.22.64.68.93,1.15,1.57,2a64.46,64.46,0,0,1,4.48,7.15,62.38,62.38,0,0,1,3.5,7.68c.38,1,.66,1.84.83,2.42a3.74,3.74,0,0,1,.22.92,29.45,29.45,0,0,1-1.39-3.2c-.84-2-2.06-4.69-3.62-7.57s-3.13-5.4-4.33-7.18A31.26,31.26,0,0,1,315.59,312.9Z" style="fill:#263238"></path><path d="M323.83,312.92a14.06,14.06,0,0,1,1.06,2.69c.57,1.7,1.26,4.07,1.86,6.73s1,5.11,1.21,6.88a15,15,0,0,1,.2,2.89,18,18,0,0,1-.57-2.83c-.3-1.76-.75-4.17-1.34-6.82s-1.24-5-1.71-6.74A19,19,0,0,1,323.83,312.92Z" style="fill:#263238"></path><path d="M332.72,318.2c.16,0-.63,3-.77,6.77s.35,6.78.19,6.81a6.26,6.26,0,0,1-.47-2,25.82,25.82,0,0,1-.25-4.87,26.09,26.09,0,0,1,.67-4.83A6.4,6.4,0,0,1,332.72,318.2Z" style="fill:#263238"></path><path d="M338.74,326.16a18.6,18.6,0,0,1-1.66,5.95,18.41,18.41,0,0,1,1.66-5.95Z" style="fill:#263238"></path><polygon points="392.88 332.95 392.88 277.87 494.57 206.76 596.26 279.39 596.26 332.95 392.88 332.95" style="fill:#FF725E"></polygon><path d="M395.29,277.32c0-.15,45-.26,100.42-.26s100.42.11,100.42.26-45,.26-100.42.26S395.29,277.46,395.29,277.32Z" style="fill:#263238"></path><g style="opacity:0.2"><polygon points="519.43 285.89 519.43 332.86 541.32 332.86 541.32 286.86 541.32 285.89 519.43 285.89"></polygon></g><path d="M492.07,205l103.46,72v10.73L493.84,217s-100.72,60.87-101.69,60.89Z" style="opacity:0.2"></path><path d="M474.94,333.07c-.05,0-.1-24.75-.1-55.29s.05-55.29.1-55.29.11,24.75.11,55.29S475,333.07,474.94,333.07Z" style="fill:#263238"></path><path d="M482,332.86c-.06,0-.1-25.94-.1-57.93s0-58,.1-58,.1,25.94.1,58S482,332.86,482,332.86Z" style="fill:#263238"></path><path d="M488.74,332.86c-.06,0-.1-27-.1-60.28s0-60.29.1-60.29.1,27,.1,60.29S488.8,332.86,488.74,332.86Z" style="fill:#263238"></path><path d="M495.53,332.86c-.06,0-.1-27.91-.1-62.33s0-62.34.1-62.34.11,27.9.11,62.34S495.59,332.86,495.53,332.86Z" style="fill:#263238"></path><path d="M502.32,332.86c-.05,0-.1-26.72-.1-59.67s0-59.68.1-59.68.11,26.72.11,59.68S502.38,332.86,502.32,332.86Z" style="fill:#263238"></path><path d="M509.11,332.86c-.05,0-.1-25.94-.1-57.93s.05-58,.1-58,.11,25.94.11,58S509.17,332.86,509.11,332.86Z" style="fill:#263238"></path><path d="M515.91,332.86c-.06,0-.11-24.7-.11-55.18s.05-55.19.11-55.19.1,24.71.1,55.19S516,332.86,515.91,332.86Z" style="fill:#263238"></path><path d="M522.7,332.86c-.06,0-.11-23.56-.11-52.61s0-52.63.11-52.63.1,23.56.1,52.63S522.75,332.86,522.7,332.86Z" style="fill:#263238"></path><path d="M529.49,332.86c-.06,0-.11-22.42-.11-50.07s0-50.08.11-50.08.1,22.42.1,50.08S529.55,332.86,529.49,332.86Z" style="fill:#263238"></path><path d="M536.28,332.86c-.06,0-.1-21.84-.1-48.78s0-48.78.1-48.78.1,21.84.1,48.78S536.34,332.86,536.28,332.86Z" style="fill:#263238"></path><path d="M543.07,332.86c-.06,0-.1-20.85-.1-46.56s0-46.57.1-46.57.1,20.85.1,46.57S543.13,332.86,543.07,332.86Z" style="fill:#263238"></path><path d="M549.86,332.86c-.06,0-.1-20.18-.1-45.07s0-45.08.1-45.08.11,20.18.11,45.08S549.92,332.86,549.86,332.86Z" style="fill:#263238"></path><path d="M468.41,332.4c-.05,0-.1-23.75-.1-53s.05-53,.1-53,.11,23.74.11,53S468.47,332.4,468.41,332.4Z" style="fill:#263238"></path><path d="M462.11,229.25c.06,0,.1,23.22.1,51.85s0,51.85-.1,51.85S462,309.74,462,281.1,462.05,229.25,462.11,229.25Z" style="fill:#263238"></path><path d="M455.8,333c-.05,0-.1-22.56-.1-50.39s.05-50.38.1-50.38.11,22.55.11,50.38S455.86,333,455.8,333Z" style="fill:#263238"></path><path d="M449.5,333.24c-.06,0-.11-22-.11-49.07s.05-49.07.11-49.07.1,22,.1,49.07S449.56,333.24,449.5,333.24Z" style="fill:#263238"></path><path d="M443.19,333c-.05,0-.1-21.25-.1-47.46s.05-47.46.1-47.46.11,21.25.11,47.46S443.25,333,443.19,333Z" style="fill:#263238"></path><path d="M436.89,333c-.06,0-.11-20.6-.11-46s.05-46,.11-46,.1,20.59.1,46S436.94,333,436.89,333Z" style="fill:#263238"></path><path d="M404.83,268.82c.06,0,.11,14.18.11,31.66s-.05,31.68-.11,31.68-.1-14.18-.1-31.68S404.77,268.82,404.83,268.82Z" style="fill:#263238"></path><path d="M398.88,268.82c.05,0,.1,14.18.1,31.66s-.05,31.68-.1,31.68-.11-14.18-.11-31.68S398.82,268.82,398.88,268.82Z" style="fill:#263238"></path><path d="M424,332.29c-.05,0-.1-16.93-.1-37.82s.05-37.83.1-37.83.11,16.93.11,37.83S424.1,332.29,424,332.29Z" style="fill:#263238"></path><path d="M430.67,332.7c-.05,0-.22-17.78-.37-39.71s-.23-39.71-.17-39.71.23,17.78.38,39.71S430.73,332.7,430.67,332.7Z" style="fill:#263238"></path><path d="M417.28,332.56c-.06,0-.11-15.81-.11-35.32s.05-35.33.11-35.33.1,15.82.1,35.33S417.34,332.56,417.28,332.56Z" style="fill:#263238"></path><path d="M411.06,332.29c-.06,0-.11-14.78-.11-33s.05-33,.11-33,.1,14.79.1,33S411.11,332.29,411.06,332.29Z" style="fill:#263238"></path><path d="M556.45,333c-.06,0-.11-18.89-.11-42.18s0-42.19.11-42.19.1,18.88.1,42.19S556.51,333,556.45,333Z" style="fill:#263238"></path><path d="M563.44,332.82c-.05,0-.1-17.57-.1-39.24s0-39.24.1-39.24.11,17.57.11,39.24S563.5,332.82,563.44,332.82Z" style="fill:#263238"></path><path d="M569.62,333c-.06,0-.11-16.68-.11-37.25s0-37.24.11-37.24.1,16.67.1,37.24S569.68,333,569.62,333Z" style="fill:#263238"></path><path d="M577.16,333.23c-.06,0-.11-16-.11-35.64s.05-35.63.11-35.63.1,16,.1,35.63S577.21,333.23,577.16,333.23Z" style="fill:#263238"></path><path d="M585.16,333.23s-.1-14.51-.1-32.4.05-32.4.1-32.4.11,14.5.11,32.4S585.22,333.23,585.16,333.23Z" style="fill:#263238"></path><path d="M592.78,333.23c-.06,0-.1-13.28-.1-29.67s0-29.66.1-29.66.1,13.28.1,29.66S592.84,333.23,592.78,333.23Z" style="fill:#263238"></path><polygon points="599.32 282.14 494.79 208.19 386.86 282.14 384.31 278.04 493.84 201.33 601.99 279.14 599.32 282.14" style="fill:#263238"></polygon><polyline points="514.66 285.89 514.34 333.07 474.72 333.07 474.49 285.89" style="fill:#263238"></polyline><polyline points="474.49 285.89 452.6 285.89 452.6 332.86 474.49 332.86 474.49 286.86" style="fill:#e0e0e0"></polyline><path d="M474.49,286.86a.89.89,0,0,1,0,.22c0,.17,0,.38,0,.65,0,.61,0,1.46,0,2.54,0,2.25,0,5.48.07,9.52,0,8.18.06,19.67.09,33.07v.25h-22.4v-.74c0-18,.05-34.38.07-46.49v-.19h.19l16,.09,4.36,0,1.13,0a1.65,1.65,0,0,1,.39,0,1.93,1.93,0,0,1-.39,0L473,286l-4.36.05-16,.08.19-.19c0,12.11,0,28.49.07,46.49v.48l-.26-.26,21.89,0-.25.24c0-13.4.07-24.89.1-33.07,0-4,.05-7.27.07-9.52,0-1.08,0-1.93,0-2.54,0-.27,0-.48,0-.65S474.48,286.86,474.49,286.86Z" style="fill:#e0e0e0"></path><polygon points="514.66 285.89 514.66 332.86 536.54 332.86 536.54 286.86 536.54 285.89 514.66 285.89" style="fill:#e0e0e0"></polygon><path d="M514.66,285.89l.36,0,1.12,0,4.33,0,16.07-.11h.19v.19c0,12.22,0,28.77.07,47,.24-.23-.31.32-.26.26H514.41v-.25c.05-13.69.09-25.45.12-33.83,0-4.12.05-7.41.07-9.7,0-1.1,0-2,0-2.57v-.65a.89.89,0,0,1,0-.22s0,.09,0,.25l0,.68c0,.63,0,1.5,0,2.62,0,2.3,0,5.61.07,9.76,0,8.33.07,20,.11,33.66l-.24-.24h21.88c.06-.05-.49.49-.26.26,0-18.2.06-34.75.07-47l.19.19-15.95-.1-4.38-.05-1.15,0A1.79,1.79,0,0,1,514.66,285.89Z" style="fill:#e0e0e0"></path><rect x="486.82" y="230.02" width="17.42" height="23.14" style="fill:#e0e0e0"></rect><path d="M495.64,253.08c-.14,0-.26-5.16-.26-11.53s.12-11.53.26-11.53.26,5.16.26,11.53S495.78,253.08,495.64,253.08Z" style="fill:#263238"></path><path d="M504.33,241.15a149.05,149.05,0,0,1-17.6,0,149.05,149.05,0,0,1,17.6,0Z" style="fill:#263238"></path></g><g id="freepik--character-2--inject-154"><path d="M433.51,404.93s17.69-25.81,29.06-27c6.58-.68,21.71,24.46,21.4,24.65s-11.28,3.15-11.28,3.15L462,391l-10.62,14.77Z" style="fill:#FF725E"></path><polygon points="391.76 399.68 420.57 402.36 447.22 401.77 458.04 412.48 457.13 429.58 379.44 430.15 391.76 399.68" style="fill:#FF725E"></polygon><path d="M444,419.19,480,415.51a7.19,7.19,0,0,1,8.12,7.12h0a7.19,7.19,0,0,1-7,7.19l-37.2-.29Z" style="fill:#FF725E"></path><path d="M401.58,400.51s0,.13-.05.37a4.24,4.24,0,0,1-.38,1,13.48,13.48,0,0,1-2.38,3,12.38,12.38,0,0,0-1.6,2,9.22,9.22,0,0,0-1.09,2.72,26.59,26.59,0,0,0-.4,6.8,20.93,20.93,0,0,1-.72,6.92,8.34,8.34,0,0,1-3.43,4.5,13.59,13.59,0,0,1-3.51,1.54,5.27,5.27,0,0,1-1.37.29,10.51,10.51,0,0,1,1.3-.49,15,15,0,0,0,3.37-1.64,8,8,0,0,0,3.18-4.35,20.88,20.88,0,0,0,.65-6.76,26.42,26.42,0,0,1,.46-6.93,9.61,9.61,0,0,1,1.19-2.83,12.36,12.36,0,0,1,1.71-2,16.31,16.31,0,0,0,2.47-2.84C401.43,401,401.53,400.5,401.58,400.51Z" style="fill:#fafafa"></path><path d="M412.79,429.62a16.69,16.69,0,0,0,.66-4.13,19.09,19.09,0,0,0-.57-4.51,54.38,54.38,0,0,0-1.66-5.36,45.61,45.61,0,0,1-1.66-5.41,18.24,18.24,0,0,1-.52-4.62,10.69,10.69,0,0,1,.52-3.09,3.88,3.88,0,0,1,.45-1.05,17.16,17.16,0,0,0-.6,4.14,19.33,19.33,0,0,0,.61,4.51,54,54,0,0,0,1.69,5.35,47.4,47.4,0,0,1,1.64,5.42,18.07,18.07,0,0,1,.47,4.63,10.48,10.48,0,0,1-.56,3.08A3.46,3.46,0,0,1,412.79,429.62Z" style="fill:#fafafa"></path><path d="M429.4,402s.09.07.21.23a3.28,3.28,0,0,1,.43.78,5.65,5.65,0,0,1,.2,3.23,12.21,12.21,0,0,1-2,4.37,21.8,21.8,0,0,0-2.88,5,8.83,8.83,0,0,0,.21,5.56c.54,1.69,1.22,3.16,1.68,4.44a14.83,14.83,0,0,1,.86,3.11,3.42,3.42,0,0,1,.07,1.18,24,24,0,0,0-1.27-4.16c-.5-1.25-1.22-2.7-1.8-4.42a9.12,9.12,0,0,1-.25-5.87,21.12,21.12,0,0,1,3-5.07,12.35,12.35,0,0,0,2.05-4.17,5.72,5.72,0,0,0,0-3.09C429.62,402.38,429.36,402,429.4,402Z" style="fill:#fafafa"></path><path d="M448.88,429.77a4.22,4.22,0,0,1-1.62-1.13,8.93,8.93,0,0,1-2.38-8.88,4.2,4.2,0,0,1,.84-1.79c.08,0-.24.71-.48,1.87a9.82,9.82,0,0,0,.11,4.55,10,10,0,0,0,2.18,4C448.31,429.27,448.93,429.7,448.88,429.77Z" style="fill:#fafafa"></path><path d="M466.08,429.84c0,.06-.86-.15-1.73-1.18a6.64,6.64,0,0,1-1.13-2,15,15,0,0,1-.67-2.7,27,27,0,0,0-.55-2.66,8.83,8.83,0,0,0-.82-2,11.43,11.43,0,0,0-1.26-1.57c0-.06.82.27,1.57,1.37a7.45,7.45,0,0,1,1,2.08,22,22,0,0,1,.6,2.7,17.3,17.3,0,0,0,.61,2.63,7.09,7.09,0,0,0,1,1.93A8.16,8.16,0,0,0,466.08,429.84Z" style="fill:#fafafa"></path><path d="M479.63,431.09c-.09,0,.16-.92.29-2.39a15.59,15.59,0,0,0-3.19-10.78c-.9-1.16-1.6-1.78-1.54-1.85a6.74,6.74,0,0,1,1.83,1.62,14.11,14.11,0,0,1,3.26,11.05A6.6,6.6,0,0,1,479.63,431.09Z" style="fill:#fafafa"></path><path d="M445.24,390.12a6.1,6.1,0,0,0,.16,2.35,8.21,8.21,0,0,0,1.14,2.28c.55.8,1.26,1.63,1.9,2.6a7.91,7.91,0,0,1,1.28,3,7.41,7.41,0,0,1,0,2.7,6.73,6.73,0,0,1-.54,1.72,1.71,1.71,0,0,1-.36.56c-.09,0,.36-.88.54-2.34a7.88,7.88,0,0,0-1.36-5.39c-.62-.93-1.32-1.78-1.87-2.63a7.69,7.69,0,0,1-1.1-2.45A3.09,3.09,0,0,1,445.24,390.12Z" style="fill:#fafafa"></path><path d="M461.75,391.53a16.22,16.22,0,0,1-.43-1.73,12.15,12.15,0,0,0-1.81-3.8,12.45,12.45,0,0,0-3-2.94,14.19,14.19,0,0,1-1.5-1,4.25,4.25,0,0,1,1.7.66,10.47,10.47,0,0,1,5,7A4,4,0,0,1,461.75,391.53Z" style="fill:#fafafa"></path><path d="M473.67,386.64a16.66,16.66,0,0,0-1.45.89,12.22,12.22,0,0,0-2.5,3.27,11.24,11.24,0,0,1-1.42,1.89,5.22,5.22,0,0,1-1.58,1.14,2.33,2.33,0,0,1-1.77.24,7.79,7.79,0,0,0,1.6-.57,5.57,5.57,0,0,0,1.4-1.14,13.24,13.24,0,0,0,1.33-1.84,10.3,10.3,0,0,1,2.72-3.28A2.57,2.57,0,0,1,473.67,386.64Z" style="fill:#fafafa"></path><path d="M297.74,419.78l4.75-4.7,9,8.82-6.86,7-.6-.51c-2.61-2.3-13.13-11.87-14.29-14C288.42,414,297.74,419.78,297.74,419.78Z" style="fill:#FF725E"></path><g style="opacity:0.5"><path d="M301.42,427.58a4.39,4.39,0,0,1,3-.76,4.3,4.3,0,0,1,2.74,1.41l-2.47,2.48Z" style="fill:#fff"></path></g><g style="opacity:0.4"><path d="M293.06,417.08s-3.44-1.87-3.54-1.1,10.17,10.82,15.09,14.87l.18-.21L292.71,419S293.56,417.61,293.06,417.08Z" style="fill:#fff"></path></g><path d="M304.94,430.77a.91.91,0,0,1-.18-.13l-.47-.41-1.7-1.54c-1.43-1.3-3.38-3.13-5.49-5.19s-4-4-5.31-5.38l-1.57-1.67-.41-.46c-.1-.1-.15-.16-.14-.17l.16.15.44.44,1.6,1.64c1.35,1.38,3.23,3.28,5.34,5.34s4,3.9,5.45,5.23l1.67,1.56.45.43Z" style="fill:#263238"></path><path d="M292.58,419.14a5.32,5.32,0,0,0,.46-1.07,5.57,5.57,0,0,0,.06-1.16,1.7,1.7,0,0,1,.09,1.2A1.67,1.67,0,0,1,292.58,419.14Z" style="fill:#263238"></path><path d="M296.55,420.41a1.41,1.41,0,0,1,.06-.62c.07-.33.16-.59.2-.58s0,.28-.05.62S296.6,420.42,296.55,420.41Z" style="fill:#263238"></path><path d="M297.66,420.75s-.09-.23-.11-.52,0-.53,0-.53.09.23.11.52S297.7,420.74,297.66,420.75Z" style="fill:#263238"></path><path d="M299,420.36s-.26-.15-.52-.4-.46-.48-.43-.51.27.15.53.4S299,420.33,299,420.36Z" style="fill:#263238"></path><path d="M299.7,419.92a1.18,1.18,0,0,1-.67-.36c-.33-.27-.51-.58-.47-.6s.25.23.56.49A5.36,5.36,0,0,1,299.7,419.92Z" style="fill:#263238"></path><path d="M297,419.34a2.43,2.43,0,0,1-.57-.57A4.74,4.74,0,0,1,296,418a2.49,2.49,0,0,1-.21-.49.39.39,0,0,1,0-.31.33.33,0,0,1,.31-.15,1.5,1.5,0,0,1,1,1.6,1.45,1.45,0,0,1-.19.56.57.57,0,0,1-.14.17,2.38,2.38,0,0,0,.22-.75,1.47,1.47,0,0,0-.18-.8,1.21,1.21,0,0,0-.73-.62c-.16,0-.23.11-.19.27a1.86,1.86,0,0,0,.19.46,5.36,5.36,0,0,0,.44.74C296.82,419.11,297,419.32,297,419.34Z" style="fill:#263238"></path><path d="M296.84,419.22a.85.85,0,0,1,.33-.46,1.26,1.26,0,0,1,.57-.26.82.82,0,0,1,.77.18.32.32,0,0,1-.08.44.91.91,0,0,1-.35.16,2.94,2.94,0,0,1-.62.07,1.08,1.08,0,0,1-.56-.09s.22,0,.55,0a4,4,0,0,0,.59-.11c.2,0,.47-.21.35-.37a.7.7,0,0,0-.62-.13,1.2,1.2,0,0,0-.54.21C297,419,296.86,419.24,296.84,419.22Z" style="fill:#263238"></path><path d="M307.17,428.16s-.24-.27-.69-.62a3.95,3.95,0,0,0-4.2-.46c-.51.24-.78.49-.8.46a1.64,1.64,0,0,1,.18-.17,3.22,3.22,0,0,1,.57-.39,3.86,3.86,0,0,1,4.32.47,3.5,3.5,0,0,1,.48.5A1.46,1.46,0,0,1,307.17,428.16Z" style="fill:#263238"></path><path d="M309.91,423.56a44.58,44.58,0,0,1-3.58,3.69,20.82,20.82,0,0,1,1.73-1.9A21.05,21.05,0,0,1,309.91,423.56Z" style="fill:#263238"></path><path d="M301.15,425.61a7,7,0,0,1-1.44-1.16,7.66,7.66,0,0,1-1.22-1.39s.59.58,1.32,1.28S301.17,425.57,301.15,425.61Z" style="fill:#263238"></path><path d="M302.91,427.33c0,.05-.17.08-.36.15s-.34.16-.37.13.09-.19.31-.27S302.91,427.29,302.91,427.33Z" style="fill:#263238"></path><path d="M304.39,427.17s-.15.08-.34.08-.34,0-.34-.07.15-.08.34-.08S304.39,427.13,304.39,427.17Z" style="fill:#263238"></path><path d="M305.71,427.73s-.16-.1-.34-.18-.34-.11-.34-.15.19-.09.41,0S305.74,427.71,305.71,427.73Z" style="fill:#263238"></path><path d="M306.56,428.21s-.12,0-.22,0-.17-.11-.15-.15.11,0,.21,0S306.58,428.18,306.56,428.21Z" style="fill:#263238"></path><polygon points="299.13 418.48 307.8 427.62 309.3 425.95 300.47 417.08 299.13 418.48" style="opacity:0.30000000000000004"></polygon><path d="M291.16,357.3l6.54,1.36L295.3,371l-9.58-1.89.1-.78c.47-3.44,2.65-17.5,3.78-19.64C290.86,346.32,291.16,357.3,291.16,357.3Z" style="fill:#FF725E"></path><g style="opacity:0.5"><path d="M286.68,364.67a4.39,4.39,0,0,1,2.31,2.1,4.26,4.26,0,0,1,.33,3.07l-3.43-.69Z" style="fill:#fff"></path></g><g style="opacity:0.4"><path d="M290.83,351.9s-.34-3.89-1-3.55-3.42,14.45-4.08,20.78l.27,0L289,352.68S290.66,352.61,290.83,351.9Z" style="fill:#fff"></path></g><path d="M286,369.36a1.89,1.89,0,0,1,0-.22c0-.18,0-.38.08-.61.1-.62.21-1.38.34-2.27.3-1.91.75-4.55,1.31-7.44s1.12-5.51,1.55-7.4c.21-.88.39-1.62.53-2.23q.09-.33.15-.6a.8.8,0,0,1,.07-.21s0,.08,0,.22l-.12.61-.48,2.24c-.41,1.89-.95,4.5-1.51,7.4s-1,5.52-1.35,7.43c-.15.89-.28,1.64-.39,2.26,0,.22-.08.43-.11.61A.91.91,0,0,1,286,369.36Z" style="fill:#263238"></path><path d="M288.85,352.64a3.24,3.24,0,0,0,2.15-.8,1.7,1.7,0,0,1-.95.74A1.67,1.67,0,0,1,288.85,352.64Z" style="fill:#263238"></path><path d="M290,356.66s.23-.17.55-.3.58-.19.6-.15-.23.17-.55.3S290,356.7,290,356.66Z" style="fill:#263238"></path><path d="M290.31,357.76s.14-.2.37-.37.44-.29.47-.26-.14.2-.38.38S290.34,357.8,290.31,357.76Z" style="fill:#263238"></path><path d="M291.35,358.63c-.05,0,0-.3,0-.66a1.39,1.39,0,0,1,.19-.63,1.57,1.57,0,0,1,0,.66A1.63,1.63,0,0,1,291.35,358.63Z" style="fill:#263238"></path><path d="M292.12,359a1.26,1.26,0,0,1-.07-.76,1.3,1.3,0,0,1,.24-.72s0,.33-.09.74A4.69,4.69,0,0,1,292.12,359Z" style="fill:#263238"></path><path d="M291.13,356.45a2.39,2.39,0,0,1,.16-.79,4.83,4.83,0,0,1,.35-.81,1.85,1.85,0,0,1,.29-.44.45.45,0,0,1,.28-.15.3.3,0,0,1,.29.18,1.47,1.47,0,0,1-.77,1.72,1.23,1.23,0,0,1-.57.15c-.14,0-.22,0-.22,0a2.19,2.19,0,0,0,.74-.23,1.36,1.36,0,0,0,.57-.59,1.23,1.23,0,0,0,.12-1c-.07-.14-.22-.12-.33,0a2.71,2.71,0,0,0-.28.41,5.92,5.92,0,0,0-.37.78C291.21,356.16,291.15,356.46,291.13,356.45Z" style="fill:#263238"></path><path d="M291.13,356.24a.81.81,0,0,1,.57,0,1.29,1.29,0,0,1,.53.33.82.82,0,0,1,.27.74.32.32,0,0,1-.41.18.94.94,0,0,1-.32-.21,2.41,2.41,0,0,1-.41-.47,1.16,1.16,0,0,1-.23-.52s.11.19.32.46a2.66,2.66,0,0,0,.41.42c.14.15.43.28.5.09s-.1-.44-.23-.59a1.35,1.35,0,0,0-.47-.33A2.71,2.71,0,0,0,291.13,356.24Z" style="fill:#263238"></path><path d="M289.37,369.78s.1-.34.14-.91a4,4,0,0,0-1.93-3.76c-.49-.29-.84-.38-.83-.41l.25.05a3.84,3.84,0,0,1,2.22,1.89,4,4,0,0,1,.4,2.24,3.08,3.08,0,0,1-.15.67C289.42,369.71,289.38,369.79,289.37,369.78Z" style="fill:#263238"></path><path d="M294.72,369.53a22.81,22.81,0,0,1-2.54-.4,21.56,21.56,0,0,1-2.51-.55,22.81,22.81,0,0,1,2.54.4A21.56,21.56,0,0,1,294.72,369.53Z" style="fill:#263238"></path><path d="M288.18,363.35a7,7,0,0,1,.17-1.84,7.68,7.68,0,0,1,.49-1.78c.05,0-.16.81-.34,1.81S288.22,363.36,288.18,363.35Z" style="fill:#263238"></path><path d="M287.71,365.78s-.15-.1-.32-.22-.32-.2-.31-.24.2,0,.4.11S287.75,365.76,287.71,365.78Z" style="fill:#263238"></path><path d="M288.66,366.92s-.14-.08-.25-.24-.16-.3-.12-.32.14.08.25.24S288.7,366.89,288.66,366.92Z" style="fill:#263238"></path><path d="M288.93,368.33s0-.18,0-.38-.1-.34-.06-.37.18.11.21.35S289,368.35,288.93,368.33Z" style="fill:#263238"></path><path d="M289,369.31s-.09-.08-.11-.19,0-.21,0-.21.09.07.11.18S289,369.3,289,369.31Z" style="fill:#263238"></path><polygon points="293.01 357.74 290.17 370.01 292.39 370.35 294.92 358.08 293.01 357.74" style="opacity:0.30000000000000004"></polygon><path d="M383.09,422.9c0,.47-38.09-27.11-38.09-27.11l-35.09,32.72-11-11.6s34.45-38.59,40.27-40.72c12.84-4.7,55.84,27.24,55.84,27.24l-4,11.31Z" style="fill:#263238"></path><path d="M290.84,372l42,10.31s26.63,47.07,32.9,47.55,20.38.11,20.38.11l5.66-17.36s-42.88-38.78-45.6-40.86-51.72-14.73-51.72-14.73Z" style="fill:#263238"></path><path d="M350.05,410.84a6.43,6.43,0,0,1-.77-1.07l-1.95-3c-1.62-2.56-3.83-6.12-6.24-10.08s-4.58-7.55-6.12-10.16l-1.8-3.11a6.87,6.87,0,0,1-.6-1.18,7.09,7.09,0,0,1,.78,1.08l1.94,3c1.62,2.57,3.83,6.13,6.24,10.08s4.58,7.55,6.12,10.16l1.8,3.11A6.87,6.87,0,0,1,350.05,410.84Z" style="fill:#455a64"></path><path d="M380.08,407.35a1.84,1.84,0,0,1-.36-.32l-1-1c-.85-.84-2.06-2.08-3.54-3.63-3-3.08-7-7.39-11.46-12.16s-8.52-9.07-11.47-12.16l-3.49-3.67c-.38-.4-.69-.73-.94-1s-.32-.36-.3-.37.14.09.37.3l1,.94c.87.82,2.1,2,3.61,3.55,3,3,7.13,7.29,11.59,12.06s8.39,9.08,11.35,12.27c1.4,1.53,2.55,2.8,3.42,3.74l.91,1C380,407.2,380.1,407.33,380.08,407.35Z" style="fill:#455a64"></path><path d="M476.92,402.75a6.71,6.71,0,0,0-7.44-6.2c-4.21.48-9.33,1.22-12.35,2.26-6,2.08-6,6.93-6,7h0l-4.32.53a6.55,6.55,0,0,0-3.79,1.71,5.14,5.14,0,0,0-1.44,5.23c1,4.06,8.07,5.3,8.09,5.3h0l26.17-2.46h0l2-.32h0Z" style="fill:#ffbe9d"></path><path d="M466,398.06a.82.82,0,0,0-.68.91.78.78,0,0,0,.87.7.8.8,0,0,0,.67-.91A.77.77,0,0,0,466,398.06Z" style="fill:#263238"></path><path d="M467,398.13c-.09.11.47.64.62,1.5s-.17,1.58,0,1.65.22-.1.38-.41a2.26,2.26,0,0,0-.46-2.52C467.27,398.13,467.06,398.07,467,398.13Z" style="fill:#263238"></path><path d="M467.64,406.68a.82.82,0,0,0-.68.92.78.78,0,0,0,.87.7.82.82,0,0,0,.68-.92A.79.79,0,0,0,467.64,406.68Z" style="fill:#263238"></path><path d="M468.36,406.63c-.08.12.47.65.62,1.51s-.17,1.57,0,1.65.22-.1.37-.41a2.23,2.23,0,0,0,.17-1.34,2.19,2.19,0,0,0-.62-1.18C468.61,406.63,468.4,406.57,468.36,406.63Z" style="fill:#263238"></path><path d="M461.41,404.63a5.67,5.67,0,0,0,0-1.44c0-.23,0-.44.13-.51a1.15,1.15,0,0,1,.68,0l1.79.36a30.25,30.25,0,0,0,4.65.69,28,28,0,0,0-4.58-1.06l-1.8-.33a1.28,1.28,0,0,0-.88,0,.54.54,0,0,0-.26.42,1.15,1.15,0,0,0,0,.38A5.52,5.52,0,0,0,461.41,404.63Z" style="fill:#263238"></path><path d="M451.1,405.84a16.18,16.18,0,0,0,3.72,8s-4.66-1.27-5.18-7.63Z" style="fill:#eb996e"></path><path d="M461.27,407.28c0-.15-1,0-1.76-.67s-.88-1.69-1-1.68-.15.26-.08.68a2.29,2.29,0,0,0,.79,1.41,2.07,2.07,0,0,0,1.46.5C461.07,407.48,461.28,407.34,461.27,407.28Z" style="fill:#263238"></path><path d="M471.7,405.81c-.22.13.05,1,.1,2s-.07,1.9.16,2,.31-.14.48-.51a3.5,3.5,0,0,0-.2-3.05C472,405.91,471.81,405.76,471.7,405.81Z" style="fill:#263238"></path><path d="M469.58,398c-.17.19.14.75.27,1.46s.1,1.34.33,1.44.29-.08.43-.38a2.16,2.16,0,0,0-.49-2.34C469.88,398,469.66,397.92,469.58,398Z" style="fill:#263238"></path><path d="M476.79,390.21a2.4,2.4,0,0,1,1.5.22,1.7,1.7,0,0,1,1,.72,1.91,1.91,0,0,1-.12,1.34c-.48,1.51-.47,3.37.69,4.46.9.84,2.31,1.05,3.07,2s.55,2.62.09,3.91-1.05,2.63-.7,3.94a9.36,9.36,0,0,0,1.49,2.52,6.79,6.79,0,0,1,1,5.11,5.5,5.5,0,0,1-3.3,3.93,4.68,4.68,0,0,1-4.94-1,1.5,1.5,0,0,1-.23-.2c-3.24.52-8.4,1.1-8.75-.37-.51-2.15,5-2.75,5-2.75.44-2.88,3.28-3.44,3.74-4.24s-.69-3.94-2.48-6.52c-2.23-3.21-2.42-8.69-2.41-10.6a1.68,1.68,0,0,1,0-.5V392l0,0a1.27,1.27,0,0,1,.12-.36,2.81,2.81,0,0,1,1.66-1.17,3.58,3.58,0,0,1,1.82-.3,1.48,1.48,0,0,1,1.08.76A1,1,0,0,1,476.79,390.21Z" style="fill:#263238"></path><path d="M475.4,393.9a.65.65,0,0,0,.28-.24,1.12,1.12,0,0,0,.2-1,1.16,1.16,0,0,0-2.2,0,1.89,1.89,0,0,0,0,1.2,3.22,3.22,0,0,0,2,1.76,10.45,10.45,0,0,1,1.3.64,2.66,2.66,0,0,1,1,1,2,2,0,0,1,0,1.47c-.16.51-.42,1-.62,1.58a3.73,3.73,0,0,0-.15,1.82,5.43,5.43,0,0,0,.65,1.75,14.18,14.18,0,0,0,2.31,2.79,10.33,10.33,0,0,1,2,2.59,4.17,4.17,0,0,1,.3,2.84,4.25,4.25,0,0,1-1.27,2.17,4.33,4.33,0,0,1-3.46,1,7.07,7.07,0,0,1-1.33-.37,1.13,1.13,0,0,0,.31.19,4.52,4.52,0,0,0,1,.32,4.43,4.43,0,0,0,1.66,0,4.2,4.2,0,0,0,2-.95,4.53,4.53,0,0,0,1.1-5.32,10.4,10.4,0,0,0-2-2.7,13.76,13.76,0,0,1-2.24-2.72,4.85,4.85,0,0,1-.62-1.63,3.33,3.33,0,0,1,.14-1.66c.17-.53.44-1,.61-1.59a2.25,2.25,0,0,0-.09-1.71,4.57,4.57,0,0,0-2.49-1.78,3.05,3.05,0,0,1-1.87-1.57,1.71,1.71,0,0,1,0-1.05,1,1,0,0,1,.64-.63,1,1,0,0,1,1.22.63,1.1,1.1,0,0,1-.13.94C475.5,393.82,475.38,393.88,475.4,393.9Z" style="fill:#455a64"></path><path d="M474.27,391.4a.87.87,0,0,0-.26.08,2.23,2.23,0,0,0-.65.43,2.37,2.37,0,0,0-.65,1.06,2.48,2.48,0,0,0,.1,1.64,3.88,3.88,0,0,0,1.33,1.47,3.16,3.16,0,0,1,.72.74,1.28,1.28,0,0,1,.16,1,8.33,8.33,0,0,1-.4,1.11,3.7,3.7,0,0,0-.26,1.28,5.89,5.89,0,0,0,.6,2.64c.81,1.68,2,2.94,2.78,4.29a5.29,5.29,0,0,1,.8,3.89,3.14,3.14,0,0,1-1.68,2,3.58,3.58,0,0,1-1,.22.72.72,0,0,0,.27,0,2.23,2.23,0,0,0,.77-.14,3.23,3.23,0,0,0,1.86-2.1A5.46,5.46,0,0,0,478,407c-.76-1.41-2-2.69-2.75-4.29a5.55,5.55,0,0,1-.57-2.48,3.53,3.53,0,0,1,.23-1.17,8.84,8.84,0,0,0,.41-1.16,1.62,1.62,0,0,0-.22-1.22,3.37,3.37,0,0,0-.8-.8,3.6,3.6,0,0,1-1.28-1.34,2.27,2.27,0,0,1,.41-2.5A3.92,3.92,0,0,1,474.27,391.4Z" style="fill:#455a64"></path></g><g id="freepik--character-1--inject-154"><path d="M106.71,429.7h17.8l-2.16-16.14,13,15.68-2.72-62.72,11.3,63.18h.47c.84-6.71,4.73-33.06,14.81-41.37,0,0-9.23,23.1-4.33,41.37h26.83V414.92l8.18,14.32,6.82-23.86v22.49L210.29,417l-5.46,12.73h17.54c.94-5.86,3.29-25.68-5.94-34.44,0,0,10.5-4,13.47,34.44h.44c1.33-10.67,7.27-56.05,12.67-63.86,0,0-6.65,38.61-.23,63.86h.6c1.64-4,8.5-20.24,13.27-25,0,0-4.71,14.14-4.1,25h.14l10.09-15.46V429.7h16.79a6.41,6.41,0,0,0,3.44-1c.57-4.9.66-14.28-5.61-20.56,0,0,6.38.22,8.63,13.85V345.33a6.46,6.46,0,0,0-6.46-6.45H106.71a6.46,6.46,0,0,0-6.46,6.45v77.92A6.45,6.45,0,0,0,106.71,429.7Z" style="fill:#455a64"></path><path d="M298.08,342.7a7.63,7.63,0,0,1-.94.93l-2.67,2.43c-2.25,2.05-5.34,4.92-8.65,8.17s-6.23,6.28-8.33,8.5L275,365.35a6.49,6.49,0,0,1-.95.92,6.52,6.52,0,0,1,.8-1.06c.54-.66,1.35-1.59,2.36-2.73,2-2.28,4.91-5.36,8.23-8.62s6.46-6.09,8.78-8.07c1.16-1,2.11-1.78,2.78-2.31A5.58,5.58,0,0,1,298.08,342.7Z" style="fill:#455a64"></path><path d="M237.58,383.7a.76.76,0,0,1-.26,0l-.76,0-2.93.05-10.77.08-35.52.08-35.53-.08L141,383.8l-2.93-.05-.76,0a.76.76,0,0,1-.26,0l.26,0,.76,0,2.93,0,10.77-.09,35.53-.07,35.52.07,10.77.09,2.93,0,.76,0Z" style="fill:#263238"></path><path d="M200,425.17c-.14,0-.26-19.54-.26-43.64s.12-43.65.26-43.65.26,19.54.26,43.65S200.17,425.17,200,425.17Z" style="fill:#263238"></path><path d="M109,380.49a11.18,11.18,0,0,1-2.63.48,37.84,37.84,0,0,1-12.84-.82,10.53,10.53,0,0,1-2.54-.81,17.65,17.65,0,0,1,2.62.45,54.15,54.15,0,0,0,6.34.8,52.14,52.14,0,0,0,6.39,0A18.17,18.17,0,0,1,109,380.49Z" style="fill:#455a64"></path><path d="M108.58,381s-.28.05-.8,0a18.89,18.89,0,0,1-2.18-.2A28.6,28.6,0,0,1,98.65,379a28.9,28.9,0,0,1-6.26-3.55,18.79,18.79,0,0,1-1.68-1.4c-.38-.35-.57-.56-.55-.59s.93.66,2.44,1.69a34.28,34.28,0,0,0,13.06,5.38C107.46,380.84,108.59,380.94,108.58,381Z" style="fill:#455a64"></path><path d="M111.05,391.87c0,.08-1.17.44-3,1.19a38.09,38.09,0,0,0-12.89,8.57C93.73,403,92.94,404,92.87,404s.14-.28.48-.74a21.88,21.88,0,0,1,1.52-1.84,32.73,32.73,0,0,1,13-8.66,21.8,21.8,0,0,1,2.28-.69A2.67,2.67,0,0,1,111.05,391.87Z" style="fill:#455a64"></path><path d="M110,395.9c0,.09-1,.39-2.51,1.09a23.33,23.33,0,0,0-5.48,3.52,23.82,23.82,0,0,0-4.28,4.93c-.91,1.41-1.35,2.36-1.43,2.33a2.18,2.18,0,0,1,.22-.71,14.12,14.12,0,0,1,.9-1.81,20.24,20.24,0,0,1,9.93-8.6,13.41,13.41,0,0,1,1.92-.63A2.19,2.19,0,0,1,110,395.9Z" style="fill:#455a64"></path><path d="M102.84,325.17a84.46,84.46,0,0,1,2.44,9.13,86.05,86.05,0,0,1,1.94,9.26,87.11,87.11,0,0,1-2.44-9.14A85.63,85.63,0,0,1,102.84,325.17Z" style="fill:#455a64"></path><path d="M111.07,329.31a54.68,54.68,0,0,0-1.73,7.14,55.68,55.68,0,0,0-.24,7.34,7,7,0,0,1-.4-2.15,23.86,23.86,0,0,1,.12-5.26,23.58,23.58,0,0,1,1.29-5.11A6.93,6.93,0,0,1,111.07,329.31Z" style="fill:#455a64"></path><path d="M299.31,382.27a30.28,30.28,0,0,1-3.07-.76,46.94,46.94,0,0,0-7.49-1.19,46,46,0,0,0-7.58.1c-1.93.18-3.13.39-3.14.31s.28-.13.81-.26,1.32-.28,2.29-.42a36.43,36.43,0,0,1,15.21,1.11c.94.28,1.69.54,2.2.74A3,3,0,0,1,299.31,382.27Z" style="fill:#455a64"></path><path d="M294.56,376.09a62.58,62.58,0,0,1-8.08,1.46,65.89,65.89,0,0,1-8.16.94A62.58,62.58,0,0,1,286.4,377,65.89,65.89,0,0,1,294.56,376.09Z" style="fill:#455a64"></path><path d="M286.3,384.11c0,.15-10.09.26-22.53.26s-22.54-.11-22.54-.26,10.09-.26,22.54-.26S286.3,384,286.3,384.11Z" style="fill:#263238"></path><path d="M99.55,383.79c0-.14,7.25-.26,16.21-.26s16.21.12,16.21.26-7.26.26-16.21.26S99.55,383.93,99.55,383.79Z" style="fill:#263238"></path><path d="M145.75,239.35a18.87,18.87,0,0,1-1.77-6.09,10.14,10.14,0,0,1,1.23-6.14,10.36,10.36,0,0,1,8.31-4.59,19.82,19.82,0,0,1,9.51,2.24,10.59,10.59,0,0,1,2.87,1.82,4.36,4.36,0,0,1,1.45,3" style="fill:#FF725E"></path><g style="opacity:0.2"><path d="M145.75,239.35a18.87,18.87,0,0,1-1.77-6.09,10.14,10.14,0,0,1,1.23-6.14,10.36,10.36,0,0,1,8.31-4.59,19.82,19.82,0,0,1,9.51,2.24,10.59,10.59,0,0,1,2.87,1.82,4.36,4.36,0,0,1,1.45,3" style="fill:#fff"></path></g><path d="M177.33,220.82c-9.17-6.55-25.5,4.74-34.67,11.83-3.94,3-7.35,7.07-8.7,11.86a10.33,10.33,0,0,0,.67,8c2,3.32,6.32,4.62,10.15,4.07s7.24-2.62,10.48-4.74a174.77,174.77,0,0,0,16.5-12.29,28.83,28.83,0,0,0,5.21-5.32,15.21,15.21,0,0,0,2.69-7.17c.19-2.42.19-3.75-2.33-6.28" style="fill:#FF725E"></path><g style="opacity:0.2"><path d="M150.33,230.54a21.8,21.8,0,0,0-7.73,10.6,18.67,18.67,0,0,0,.5,13c.17.38.44.81.85.78a1,1,0,0,0,.5-.24c3.89-2.93,5.7-7.91,6.39-12.74a39.23,39.23,0,0,0-.12-11.85"></path></g><path d="M185.18,230.93h0c-1.05-1.41-2.45-3.24-3.07-3.89-2-2.07-2.17-1.9-2.38-1.63-.56.71,3.34,3.77,2.11,3.59s-4.33-4.28-4.88-3.51c-.73,1,3.42,4.14,3.75,4.43s-.09.76-.37.49-4.81-4.49-5.53-3.51c-.4.55.67,1.15.67,1.15s4.4,3.53,4.05,4-3-1.53-3.87-2.26-1.53-.62-1.56,0c0,.43,2.53,2.73,3.39,3.44s3.23,2.6,1.28,2.6h-.09c-1.93-.05-3.43.55-3.75,1a.67.67,0,0,0,.69,1,.53.53,0,0,0,.27-.06l.14,0a9.51,9.51,0,0,1,2-.17,5.43,5.43,0,0,1,1.74.29q.88.31,1.53.6c3.78,3.5,13.23,12.42,13.23,14.14,0,2.14-25.43,10.1-25.43,10.1l8.51,13.93s24.92-11.5,29.6-19.53C211.45,249.75,185.18,230.93,185.18,230.93Z" style="fill:#b78876"></path><path d="M189.51,308.89s34.75-24,42.76-23,33.63,40.13,34.78,40.71-10.81,10.8-10.81,10.8l-26.89-29.29-27.59,18.49L187.05,321Z" style="fill:#263238"></path><path d="M169.34,338.88c-17.44-3.79-5.75-26.59-5.75-26.59l67.48,6.41c6.35.07,10.14,3.32,10.12,8.78l.06.32c.56,7.17-4.26,10.85-9.69,10.83l-61.68.41" style="fill:#263238"></path><path d="M183.62,315.84h.2l.57,0,2.19.09,8.06.41,26.57,1.49c1.3.06,2.58.17,3.84.2s2.52.08,3.74.15,2.43.17,3.61.29a13.93,13.93,0,0,1,3.42.68,8.4,8.4,0,0,1,2.84,1.74,7.26,7.26,0,0,1,1.72,2.63,12.58,12.58,0,0,1,.69,2.85,19.15,19.15,0,0,1,.18,2.68,10.88,10.88,0,0,1-.92,4.51,7.54,7.54,0,0,1-2.14,2.75,5.91,5.91,0,0,1-1.95,1c-.48.15-.49.1,0-.06a6.05,6.05,0,0,0,1.88-1.07,7.52,7.52,0,0,0,2.05-2.72,10.87,10.87,0,0,0,.85-4.43,18.94,18.94,0,0,0-.2-2.65,12.34,12.34,0,0,0-.69-2.77,6.92,6.92,0,0,0-1.66-2.52,8.25,8.25,0,0,0-2.74-1.66,13.44,13.44,0,0,0-3.35-.64c-1.17-.13-2.37-.21-3.59-.29s-2.46-.12-3.73-.14-2.54-.14-3.84-.2l-26.58-1.59-8.05-.52-2.19-.16-.57-.05A.52.52,0,0,1,183.62,315.84Z" style="fill:#455a64"></path><path d="M159.46,252.59l-12.13-17.26c-1.52,2.85-1.27,6.28-1.21,9.51s-.25,6.79-2.53,9.09c-1.85,1.86-4.59,2.47-7.2,2.79s-5.32.48-7.63,1.71-4.11,4-3.3,6.45a11.54,11.54,0,0,1,.86,2.43c.16,2.12-2.26,3.32-4,4.59a9.3,9.3,0,0,0,3.4,16.49c3.22.77,6.69-.21,9.89.66,2.4.65,4.45,2.3,6.88,2.85a10.2,10.2,0,0,0,8.42-2.3,20.72,20.72,0,0,0,5.33-7.18A43.94,43.94,0,0,0,159.46,252.59Z" style="fill:#263238"></path><path d="M192.3,314.92l-9.46-30.46c.14-3.06.21-6.09-.83-8.94a17.9,17.9,0,0,0-5.43-7.21c-3.23-5-7.79-9.42-11.6-8.65L157,263.24c-5.64,3-9.68,4.51-11.22,12.75-.52,2.82,5.05,8.7,6.11,11.35l10.5,18.56-4.56,15.36Z" style="fill:#FF725E"></path><path d="M192.3,314.92l-9.46-30.46c.14-3.06.21-6.09-.83-8.94a17.9,17.9,0,0,0-5.43-7.21c-3.23-5-7.79-9.42-11.6-8.65L157,263.24c-5.64,3-9.68,4.51-11.22,12.75-.52,2.82,5.05,8.7,6.11,11.35l10.5,18.56-4.56,15.36Z" style="opacity:0.2"></path><path d="M173.6,287.72a8.81,8.81,0,0,1-4.89.89,8.67,8.67,0,0,1-4.75-1.44,31.12,31.12,0,0,0,4.78.92A31.52,31.52,0,0,0,173.6,287.72Z" style="fill:#263238"></path><g style="opacity:0.2"><path d="M160.61,312c.56-1.84,2.58-2.82,4-4.12s2.81-3.06,2.48-5A4.76,4.76,0,0,0,165,300c-1-.71-2.17-1.19-3.25-1.81a17.42,17.42,0,0,1-6.39-7.48s-.55,1.73-.55,1.73l1.05,1.87c1,1.69,5.51,10,6.58,11.62l-1.81,6.1"></path></g><path d="M172.39,240.69c1.71-8.62-4-12.42-7.42-13.48a13,13,0,0,0-6.33,0,22.83,22.83,0,0,0-6,1.88,11.25,11.25,0,0,0-4.66,4.14c-1.92,3.21-1.63,7.29-.61,10.88a29.13,29.13,0,0,0,6.28,11.49,3.06,3.06,0,0,0,1.33,1,1.15,1.15,0,0,0,1.42-.59" style="fill:#263238"></path><path d="M152,235.45a2.29,2.29,0,0,0-1.51,2.69h0l7.75,29.8c.81,3.54,8.16,6.35,11.95,5.45h0c3.82-.91,2.13-4.82,1.14-8.13a51.29,51.29,0,0,1-1.57-7.75s4.67-1.86,4.31-8.4c-.18-3.26-1.45-8.39-2.62-12.55a6.84,6.84,0,0,0-8.72-4.64Z" style="fill:#b78876"></path><path d="M170.7,241a.84.84,0,0,1-.61,1,.78.78,0,0,1-1-.55.83.83,0,0,1,.6-1A.81.81,0,0,1,170.7,241Z" style="fill:#263238"></path><path d="M170.92,239.49c-.08.13-.79-.2-1.67,0s-1.42.77-1.53.68,0-.25.24-.51a2.29,2.29,0,0,1,1.2-.68,2.2,2.2,0,0,1,1.35.14C170.82,239.26,171,239.43,170.92,239.49Z" style="fill:#263238"></path><path d="M162.16,242.86a.84.84,0,0,1-.61,1,.78.78,0,0,1-1-.55.83.83,0,0,1,.6-1A.8.8,0,0,1,162.16,242.86Z" style="fill:#263238"></path><path d="M162.37,241.5c-.08.13-.8-.19-1.67,0s-1.42.77-1.54.68,0-.25.24-.52a2.25,2.25,0,0,1,1.21-.67,2.2,2.2,0,0,1,1.35.14C162.27,241.27,162.4,241.45,162.37,241.5Z" style="fill:#263238"></path><path d="M166.93,247.3a5.94,5.94,0,0,1,1.37-.56c.21-.07.42-.16.42-.32a1.13,1.13,0,0,0-.29-.63l-1-1.56a31.4,31.4,0,0,1-2.44-4.12,29.38,29.38,0,0,1,2.77,3.91l1,1.58a1.26,1.26,0,0,1,.3.85.56.56,0,0,1-.29.4,1.44,1.44,0,0,1-.37.14A6.09,6.09,0,0,1,166.93,247.3Z" style="fill:#263238"></path><path d="M169.77,257.51a16.49,16.49,0,0,1-9-.44s3,3.91,9.2,1.95Z" style="fill:#aa6550"></path><path d="M167,249.48a1.66,1.66,0,0,0-1.54-.28,1.52,1.52,0,0,0-.88.75.93.93,0,0,0,.16,1.06,1.08,1.08,0,0,0,1.21,0,3.36,3.36,0,0,0,1-.91.77.77,0,0,0,.19-.31.3.3,0,0,0-.07-.33" style="fill:#aa6550"></path><path d="M164.49,248.46c.14,0,.35.91,1.31,1.4s1.94.18,2,.31-.19.23-.61.34a2.44,2.44,0,0,1-1.65-.21,2.11,2.11,0,0,1-1-1.19C164.37,248.72,164.43,248.47,164.49,248.46Z" style="fill:#263238"></path><path d="M162.43,239.89c0,.26-.93.33-1.93.68s-1.77.8-1.95.61,0-.34.3-.64a3.49,3.49,0,0,1,1.36-.84,3.41,3.41,0,0,1,1.59-.15C162.21,239.62,162.44,239.77,162.43,239.89Z" style="fill:#263238"></path><path d="M170.05,237c-.11.23-.76.15-1.48.3s-1.31.42-1.5.25,0-.31.2-.56a2.08,2.08,0,0,1,1.13-.58,2.12,2.12,0,0,1,1.27.14C170,236.73,170.1,236.92,170.05,237Z" style="fill:#263238"></path><path d="M171.46,236.56c-2.27-5.16-3.32-2.7-5.57-4.91a27.06,27.06,0,0,1-10.32,8.44,2.21,2.21,0,0,0-.94.54,2.24,2.24,0,0,0-.18,2,24.34,24.34,0,0,1,.75,5.69c0,1.92,3,13.43,1.83,15-3-3.95-7.85-18.58-7.94-23.56,0-2,.16-4.22,1.45-5.8a9,9,0,0,1,3.63-2.35c3.32-1.38,7-2.33,10.51-1.8s6.44,1.49,7.64,4.89" style="fill:#263238"></path><path d="M124.84,287.58a1.58,1.58,0,0,1-.75-.29,2.87,2.87,0,0,1-1.2-2,4,4,0,0,1,.08-1.7,5,5,0,0,1,1-1.77,20.38,20.38,0,0,1,3.77-3,8.69,8.69,0,0,0,2-1.92,4.75,4.75,0,0,0,.86-2.75c.09-2.05-.84-4.24-.5-6.71a6.52,6.52,0,0,1,1.63-3.34,10.24,10.24,0,0,1,3.09-2.33c2.36-1.18,5.06-1.59,7.67-2.3s5.12-1.82,6.62-3.84,1.64-4.64,1.48-6.94a47.92,47.92,0,0,1-.43-6.73,14.44,14.44,0,0,1,1.59-5.68,15.29,15.29,0,0,1,5.73-6.21,10.71,10.71,0,0,1,2.86-1.25,25.93,25.93,0,0,0-2.75,1.42,15.46,15.46,0,0,0-5.51,6.2,14.29,14.29,0,0,0-1.49,5.54,48.45,48.45,0,0,0,.48,6.67,16.28,16.28,0,0,1-.1,3.68,8,8,0,0,1-1.45,3.6c-1.61,2.18-4.27,3.34-6.9,4s-5.3,1.13-7.58,2.26-4.12,3-4.47,5.29.55,4.48.46,6.65a5.2,5.2,0,0,1-1,3,8.77,8.77,0,0,1-2.07,2,21.13,21.13,0,0,0-3.77,2.94,4.64,4.64,0,0,0-1,1.65,3.71,3.71,0,0,0-.12,1.6,2.88,2.88,0,0,0,1.06,1.92A4,4,0,0,0,124.84,287.58Z" style="fill:#455a64"></path><path d="M167,228.19a5.27,5.27,0,0,1-.86,1.4,20.15,20.15,0,0,1-3.39,3.12c-.79.6-1.68,1.23-2.68,1.88-.49.32-1,.66-1.56,1a15.85,15.85,0,0,0-1.65,1,10.16,10.16,0,0,0-2.84,3.11,8.21,8.21,0,0,0-1.13,4.42v.05a28.47,28.47,0,0,0,.5,7.7,25.54,25.54,0,0,1,.33,8.54,11,11,0,0,1-1.36,3.79,8.47,8.47,0,0,1-2.75,2.8c-2.2,1.38-4.62,1.95-6.7,2.89a11.42,11.42,0,0,0-2.84,1.69,8.11,8.11,0,0,0-2,2.39,13.77,13.77,0,0,0-1.52,5.39,17,17,0,0,0,.94,8.09,8.3,8.3,0,0,0,1.74,2.44,3.61,3.61,0,0,1-.61-.5,6.35,6.35,0,0,1-1.31-1.85,16.58,16.58,0,0,1-1.12-8.21,14,14,0,0,1,1.5-5.57,8.46,8.46,0,0,1,2-2.53,11.65,11.65,0,0,1,2.94-1.78c2.13-1,4.53-1.55,6.62-2.88A8.14,8.14,0,0,0,152,264a10.51,10.51,0,0,0,1.29-3.62,25.78,25.78,0,0,0-.32-8.38,28.74,28.74,0,0,1-.47-7.83v.06a8.46,8.46,0,0,1,1.23-4.69,10.36,10.36,0,0,1,3-3.21,16.57,16.57,0,0,1,1.69-1.05c.55-.32,1.07-.64,1.57-.95,1-.63,1.89-1.25,2.69-1.82a21.26,21.26,0,0,0,3.44-3C166.76,228.69,167,228.17,167,228.19Z" style="fill:#455a64"></path><path d="M258.88,334.37l7.76,8.05,16.08-12.57c-1-.94-7.84,1.24-11.54,2.56l-4.77-4.21Z" style="fill:#b78876"></path><polygon points="266.1 342.85 267.09 343.83 283.32 330.15 282.72 329.85 266.1 342.85" style="fill:#263238"></polygon><path d="M275.81,335.83c-.05.05-.34-.1-.68-.5a3.47,3.47,0,0,1-.77-1.9c-.12-1.64.73-2.78.85-2.66a11.37,11.37,0,0,0-.33,2.62A7.46,7.46,0,0,0,275.81,335.83Z" style="fill:#263238"></path><path d="M273.46,339.34s-.44-.22-.9-.82a6,6,0,0,1-1.11-2.72,5.9,5.9,0,0,1,.31-2.91c.28-.71.58-1.07.63-1a11,11,0,0,0-.43,3.88A10.77,10.77,0,0,0,273.46,339.34Z" style="fill:#263238"></path><path d="M279.17,333.57c-.08.12-.87-.48-1.15-1.59s.11-2,.23-2,0,.87.27,1.83S279.28,333.47,279.17,333.57Z" style="fill:#263238"></path><path d="M269.8,330.49a21.61,21.61,0,0,1-3.44,4.21,22,22,0,0,1-4,3.63,39.46,39.46,0,0,1,3.66-4A42.15,42.15,0,0,1,269.8,330.49Z" style="fill:#263238"></path><path d="M150.44,309,132.66,339H115l12-3.85,15-40.92s3.35-19.18,5.73-23c2.22-3.57,10-2.57,11.43,4.56C160.29,281.88,150.44,309,150.44,309Z" style="fill:#b78876"></path><path d="M291.53,333.94a4.15,4.15,0,0,1-.26,1c-.2.63-.51,1.54-.91,2.65-.8,2.23-2,5.28-3.4,8.6s-2.8,6.28-3.85,8.4c-.52,1.06-1,1.91-1.28,2.49a3.32,3.32,0,0,1-.54.88,4.22,4.22,0,0,1,.36-1c.31-.72.69-1.57,1.13-2.56,1-2.16,2.29-5.14,3.71-8.46s2.64-6.33,3.52-8.52l1.07-2.59A3.44,3.44,0,0,1,291.53,333.94Z" style="fill:#455a64"></path><path d="M299.91,398.35a25.7,25.7,0,0,1-2.94-1.2c-1.79-.76-4.31-1.75-7.14-2.64s-5.47-1.53-7.38-1.94a28.48,28.48,0,0,1-3.09-.7,14.65,14.65,0,0,1,3.16.34A55.9,55.9,0,0,1,290,394a54.72,54.72,0,0,1,7.14,2.8A14.59,14.59,0,0,1,299.91,398.35Z" style="fill:#455a64"></path><path d="M290,401.88c-.11.11-1.92-1.64-4.49-3.32s-4.87-2.69-4.81-2.83a14.76,14.76,0,0,1,5.1,2.39A15,15,0,0,1,290,401.88Z" style="fill:#455a64"></path></g></svg>
