<?xml version="1.0" encoding="UTF-8" standalone="no"?>
<!-- Created with Inkscape (http://www.inkscape.org/) -->

<svg
   width="734.11761mm"
   height="198.85172mm"
   viewBox="0 0 734.1176 198.85172"
   version="1.1"
   id="svg1"
   inkscape:export-filename="Logo_COOSDY.svg"
   inkscape:export-xdpi="96"
   inkscape:export-ydpi="96"
   inkscape:version="1.3.2 (091e20e, 2023-11-25, custom)"
   sodipodi:docname="lo.svg"
   xmlns:inkscape="http://www.inkscape.org/namespaces/inkscape"
   xmlns:sodipodi="http://sodipodi.sourceforge.net/DTD/sodipodi-0.dtd"
   xmlns="http://www.w3.org/2000/svg"
   xmlns:svg="http://www.w3.org/2000/svg">
  <sodipodi:namedview
     id="namedview1"
     pagecolor="#505050"
     bordercolor="#eeeeee"
     borderopacity="1"
     inkscape:showpageshadow="0"
     inkscape:pageopacity="0"
     inkscape:pagecheckerboard="0"
     inkscape:deskcolor="#505050"
     inkscape:document-units="mm"
     inkscape:zoom="0.58154663"
     inkscape:cx="2944.7338"
     inkscape:cy="468.57807"
     inkscape:window-width="1920"
     inkscape:window-height="1009"
     inkscape:window-x="1912"
     inkscape:window-y="-8"
     inkscape:window-maximized="1"
     inkscape:current-layer="layer1">
    <inkscape:page
       x="0"
       y="0"
       width="734.11761"
       height="198.85172"
       id="page1"
       margin="0 0 0"
       bleed="0"
       inkscape:export-filename="lo.svg"
       inkscape:export-xdpi="96"
       inkscape:export-ydpi="96" />
  </sodipodi:namedview>
  <defs
     id="defs1" />
  <g
     inkscape:label="Capa 1"
     inkscape:groupmode="layer"
     id="layer1"
     transform="translate(149.40172,-41.856775)">
    <g
       id="g1"
       transform="translate(1.9302528,24.411514)">
      <text
         xml:space="preserve"
         style="font-style:normal;font-variant:normal;font-weight:800;font-stretch:normal;font-size:141.111px;line-height:0px;font-family:'Bricolage Grotesque';-inkscape-font-specification:'Bricolage Grotesque, Ultra-Bold';font-variant-ligatures:normal;font-variant-caps:normal;font-variant-numeric:normal;font-variant-east-asian:normal;fill:#52525b;fill-opacity:1;stroke-width:0.264583"
         x="71.643295"
         y="190.70197"
         id="text1"><tspan
           sodipodi:role="line"
           id="tspan1"
           x="71.643295"
           y="190.70197"><tspan
   style="font-style:normal;font-variant:normal;font-weight:800;font-stretch:normal;font-size:158.75px;font-family:Sans;-inkscape-font-specification:'Sans, Ultra-Bold';font-variant-ligatures:normal;font-variant-caps:normal;font-variant-numeric:normal;font-variant-east-asian:normal;fill:#52525b;fill-opacity:1"
   id="tspan2">C</tspan>oosdy</tspan></text>
      <g
         id="g2"
         style="fill:#52525b;fill-opacity:1"
         transform="matrix(1.231263,0,0,1.266307,-376.88422,-49.030895)">
        <path
           style="opacity:1;fill:#52525b;fill-opacity:1;stroke-width:0.529166"
           d="m 218.55384,187.52898 -29.95572,-0.1826 c 0,0 -3.10517,-0.73064 -3.10517,-3.8358 0.18266,-0.91328 0.36532,-15.34316 0.36532,-15.34316 0,0 14.61254,-25.024 13.69926,-33.60886 0,0 5.47971,-63.747236 70.32288,-60.64207 0.73062,0 15.89114,1.09595 17.71772,2.19189 1.46124,0.3653 16.62176,1.6439 19.17896,0.54796 1.2786,0 16.62178,-4.383764 25.75462,-6.940956 2.37454,-0.365316 13.69926,-2.37454 15.1605,-2.009224 0.36532,-0.365316 -0.73062,-9.498156 8.21956,-9.863472 2.00924,0 7.48894,-0.36531 10.04612,6.758306 0.9133,0 13.88192,2.374534 17.90038,5.662358 0.73062,0.913284 4.74908,7.123628 8.95018,7.488928 2.19188,0.73062 10.77676,4.38376 10.77676,4.38376 0,0 -3.10518,13.69926 -12.96864,14.79522 -2.00922,0.1826 -20.82288,5.4797 -28.67712,14.97786 -1.09594,1.09592 -15.16052,15.89114 -15.34318,32.5129 0.1826,2.19188 -2.19188,19.54428 12.23802,33.79152 1.09594,0.1826 7.67158,1.46126 7.67158,1.46126 0,0 5.84502,3.10516 6.21032,8.0369 -1.46124,-0.1826 -31.78228,-0.36532 -31.78228,-0.36532 0,0 -20.45756,-22.55812 -22.64944,-26.57656 -1.82658,-2.73986 -10.41144,-16.9871 -10.22878,-25.3893 -0.73064,-4.56644 -0.91328,-13.88192 -0.91328,-13.88192 l -5.1144,-0.1826 c 0,0 -0.91328,20.09224 2.19188,24.29336 0.73062,2.00922 3.28782,4.74908 -2.5572,5.4797 -1.46124,0.1826 -8.4022,2.00922 -18.08302,1.64392 -3.10516,-0.1826 -15.89114,-2.37454 -15.89114,-2.37454 0,0 -15.52583,20.64022 -12.96864,26.66788 0.54797,1.2786 1.64391,2.19188 1.64391,2.19188 0,0 9.86347,-1.91788 11.69004,8.3109 -1.82657,0 -30.68635,-0.1826 -30.68635,-0.1826 0,0 -7.48893,-19.17896 -6.02767,-20.09226 1.82657,-1.09594 18.08302,-8.95018 24.65867,-19.54428 1.46125,-2.00922 11.87269,-19.27028 11.32472,-30.13836 0,0.0914 -5.84502,-0.0914 -5.84502,-0.0914 0,0 -2.00922,20.09226 -14.42989,31.41698 -1.82657,1.82656 -12.96863,11.8727 -23.56273,15.70848 -2.5572,0.91328 -13.33394,5.29706 -14.97786,8.58488 -0.73062,0.73062 -4.93173,5.29704 -0.18266,5.66236 1.82657,0 9.68081,1.2786 10.22879,8.6762 z"
           id="path1" />
        <path
           style="opacity:1;fill:#52525b;fill-opacity:1;stroke-width:0.529166"
           d="m 283.99065,158.34954 h 13.33394 c 0,0 8.21956,-2.37454 8.85886,-3.19648 0.82196,-0.1826 1.64392,-0.6393 3.10518,2.64852 0.54796,0.91328 2.10054,2.9225 2.10054,2.9225 0,0 -7.12362,9.77214 -7.48892,13.1513 -0.0914,0.91328 -1.09594,5.4797 2.9225,5.38838 0.82196,0 8.49354,0.27398 9.13284,8.21956 -1.2786,0 -29.49908,-0.0914 -29.49908,-0.0914 0,0 -3.65312,-10.5941 -3.65312,-12.05536 0,-1.46124 -0.1826,-15.98246 1.18726,-16.98708 z"
           id="path2" />
      </g>
    </g>
  </g>
</svg>
